
        <svg xmlns="http://www.w3.org/2000/svg" xmlns:xlink="http://www.w3.org/1999/xlink" version="1.1" width="3193.548387096774" 
        height="3156.5115750803643" viewBox="0 0 3193.548387096774 3156.5115750803643">
			
			<g transform="scale(9.67741935483871) translate(10, 10)">
				<defs id="SvgjsDefs33863"><linearGradient id="SvgjsLinearGradient33870"><stop id="SvgjsStop33871" stop-color="#00ff8f" offset="0"></stop><stop id="SvgjsStop33872" stop-color="#00a1ff" offset="1"></stop></linearGradient><linearGradient id="SvgjsLinearGradient33873"><stop id="SvgjsStop33874" stop-color="#00ddff" offset="0"></stop><stop id="SvgjsStop33875" stop-color="#ff00d4" offset="1"></stop></linearGradient></defs><g id="SvgjsG33864" featureKey="rootContainer" transform="matrix(2.9388568246550153,0,0,2.9388568246550153,-0.11025446391769686,0.08425770368723878)" fill="url(#SvgjsLinearGradient33870)"><path xmlns="http://www.w3.org/2000/svg" d="M104.6 41.3a52.2 52.2 0 0 0-3.5-11.2A51.1 51.1 0 0 0 44.3 1a49.6 49.6 0 0 0-5.7 1.5 49.1 49.1 0 0 0-7.9 2.7A51.6 51.6 0 0 0 6.3 77a53.7 53.7 0 0 0 4.1 6.4 57 57 0 0 0 5 5.7 51.7 51.7 0 0 0 55.3 11.5l3.3-1.4 3-1.5a50.9 50.9 0 0 0 5.8-3.8l2.7-2.1 1.2-1.1 1.1-.9 2-1.8.7-.6.6-.7 1.8-2a48.5 48.5 0 0 0 5.9-8.3 50.4 50.4 0 0 0 5.6-14.7 51.6 51.6 0 0 0 .2-20.4zM87.1 88.6l-1.2 1.1-1.2 1.1-2.6 2.1a49.5 49.5 0 0 1-5.7 3.6l-3 1.5-3.2 1.3-4.9 1.6h-.5a50.9 50.9 0 0 1-20.3.1 51.8 51.8 0 0 1-11.1-3.6A50.5 50.5 0 0 1 22.9 91a52 52 0 0 1-9.1-9.4 50.3 50.3 0 0 1-3.7-5.7c-.6-1-1.1-2-1.6-3.1s-1-2.1-1.3-3.2a50.6 50.6 0 0 1 8.6-50.8l.8-.8.5-.6.6-.6 1.2-1.1 2.4-2.1A50.5 50.5 0 0 1 62.4 3.2a48.5 48.5 0 0 1 14.7 5.2 47 47 0 0 1 8.3 5.8l2 1.8.7.6.6.7 1.8 2a49.7 49.7 0 0 1 11.3 22.9 50.8 50.8 0 0 1-.1 20.2 51.6 51.6 0 0 1-3.6 11 50.2 50.2 0 0 1-6.6 10.5l-2.1 2.4zm-44.9 13a50.1 50.1 0 0 1-13.7-5 51.8 51.8 0 0 1-6.2-4 55.2 55.2 0 0 1-5.5-4.8 49.9 49.9 0 0 1-11-53.2c.4-1.1.9-2.1 1.3-3.1l.6-1.3a50.2 50.2 0 0 0-3.4 11 51.3 51.3 0 0 0 2.4 28.5c.4 1.1.9 2.2 1.4 3.2s1 2.1 1.6 3.1a50.6 50.6 0 0 0 3.7 5.8 51.5 51.5 0 0 0 9.2 9.5 50.9 50.9 0 0 0 10.7 6.5 51 51 0 0 0 28.7 3.9 50.3 50.3 0 0 1-19.8-.1zm61.9-39.9a50.2 50.2 0 0 1-5.5 14.7 48.4 48.4 0 0 1-5.8 8.3l-1.8 2-.6.7-.7.6-1.9 1.7h.2l2.3-2.4 2.1-2.5A51.3 51.3 0 0 0 98.9 74a51.4 51.4 0 0 0 3.2-31.6 49.6 49.6 0 0 0-2.5-8.2 49.4 49.4 0 0 0-3.1-6.5 48.7 48.7 0 0 0-5.9-8.3l-1.8-2-.6-.7-.7-.6-2-1.8A49.9 49.9 0 0 0 77.3 8a49.3 49.3 0 0 0-6.5-3.2 49.8 49.8 0 0 0-8.2-2.6A52.2 52.2 0 0 0 49.9 1a50.8 50.8 0 0 1 22.7 3.2l3.2 1.3 3.1 1.6a50.1 50.1 0 0 1 5.7 3.7l2.6 2.1 1.2 1.1 1.2 1.1 2.3 2.3 2.1 2.4a50.4 50.4 0 0 1 6.5 10.5 51.6 51.6 0 0 1 3.6 11 51.1 51.1 0 0 1 0 20.3z"></path></g><g id="SvgjsG33865" featureKey="symbolFeature-0" transform="matrix(1.2176405012754483,0,0,1.2176405012754483,94.82358569738574,69.51790061734933)" fill="url(#SvgjsLinearGradient33873)"><g xmlns="http://www.w3.org/2000/svg" transform="translate(0,-952.36218)"><path style="text-indent:0;text-transform:none;direction:ltr;block-progression:tb;baseline-shift:baseline;color:;enable-background:accumulate;" d="m 56.986689,968.36203 c -18.2209,0 -33.0133,14.7865 -33.0133,32.99997 0,18.2137 14.7924,33.0001 33.0133,33.0001 18.2209,0 33.01331,-14.7864 33.01331,-33.0001 0,-18.21347 -14.79241,-32.99997 -33.01331,-32.99997 z m 2.06333,2.0625 c 6.95719,0.4577 13.27423,3.21 18.2261,7.5 -0.84815,0.9683 -1.96008,1.9571 -3.28257,2.9063 -4.26257,-4.1593 -9.52763,-7.5727 -14.94353,-10.4063 z m -4.43928,0.031 c 6.42633,3.4256 13.05942,7.163 17.66336,11.5 -3.67318,2.2698 -8.50644,4.2717 -13.75554,5.4062 -2.68154,0.5796 -5.46507,0.9132 -8.25333,1 0.54009,-5.851 1.9008,-11.839 4.34551,-17.9062 z m -2.25096,0.25 c -2.30274,5.9949 -3.58305,11.9104 -4.0954,17.6874 -5.94591,-0.1025 -11.8006,-1.5226 -16.66297,-4.8437 5.58568,-7.4899 11.80492,-11.5614 20.75837,-12.8437 z m 26.38568,8.5624 c 5.20445,5.1288 8.60552,12.096 9.15994,19.8438 -0.8352,1.15297 -2.00061,2.29147 -3.47015,3.37497 -0.54644,-5.32687 -2.13643,-10.06347 -4.56434,-14.24997 -1.22448,-2.1114 -2.71619,-4.0776 -4.40802,-5.9062 1.28948,-0.9612 2.37932,-2.0214 3.28257,-3.0626 z m -4.97075,4.1876 c 1.68809,1.8 3.15204,3.7233 4.3455,5.7812 2.44378,4.2138 4.0208,9.0287 4.43929,14.53117 -4.58723,2.7234 -9.97394,4.5868 -14.66334,5.7956 -5.34654,1.3356 -10.75509,2.1338 -15.88022,2.4232 -1.53139,-6.8089 -2.3623,-14.05297 -1.90702,-21.56247 3.00126,-0.08 5.98701,-0.4756 8.84732,-1.0937 5.66414,-1.2243 10.85315,-3.3275 14.81847,-5.875 z m -43.2987,1.75 c 5.22107,3.5679 11.41697,5.0918 17.63211,5.2187 -0.44129,7.5415 0.373,14.83687 1.87575,21.65627 -9.16312,0.2632 -17.83987,-1.1376 -23.38442,-4.5626 -0.40097,-1.991 -0.62525,-4.0463 -0.62525,-6.1562 0,-5.91427 1.63174,-11.45627 4.50181,-16.15617 z m -11.69221,11.1565 c -0.45859,0.087 -0.82105,0.5334 -0.81283,1 l 0,28.00007 c 5e-5,0.5236 0.47661,0.9999 1.0004,1 l 15.00605,0 c -0.69278,-0.6377 -1.36286,-1.3075 -2.0008,-2 l -12.00484,0 0,-26.00007 3.15752,0 c 0.0586,-0.6662 0.0909,-1.3453 0.18758,-2 -1.50037,-10e-5 -3.05018,0 -4.53308,0 z m 69.21539,5.74997 c -0.13676,5.7439 -1.84002,11.0968 -4.68939,15.6563 1.08805,-4.6339 1.48199,-8.9498 1.31303,-12.9375 1.26851,-0.8497 2.41933,-1.765 3.37636,-2.7188 z m -5.31464,3.9062 c 0.0835,4.8122 -0.70006,10.1124 -2.56353,15.9689 -5.33447,5.9778 -12.93779,9.8945 -21.47741,10.3438 -2.27169,-5.563 -4.49417,-11.7384 -6.12747,-18.3439 5.50577,-0.3924 10.83375,-1.2197 15.83472,-2.473 5.23583,-1.4308 9.95745,-3.0068 14.33369,-5.4958 z m -55.42859,4.2188 c 6.12172,3.0984 14.52607,4.1794 23.22811,3.8438 1.60162,6.6035 3.76816,12.7482 6.00242,18.2813 -13.83048,-0.2193 -25.45977,-9.4795 -29.23053,-22.1251 z m -9.47256,17.1251 c -0.20024,0.037 -0.38847,0.1363 -0.53147,0.2812 l -7.00282,7 c -0.5746,0.5555 -0.08,1.7376 0.71904,1.7188 l 52.02096,0 c 0.78446,0.019 1.28986,-1.118 0.7503,-1.6875 -2.18476,0.4416 -4.43921,0.6875 -6.75272,0.6875 -2.83202,0 -5.59035,-0.3456 -8.22206,-1 l -35.38926,0 5.00202,-5 19.35154,0 c -0.9066,-0.6247 -1.78581,-1.2927 -2.62605,-2 -5.76653,0 -11.56881,0 -17.31948,0 z" fill="url(#SvgjsLinearGradient33873)" fill-opacity="1" stroke="none" marker="none" visibility="visible" display="inline" overflow="visible"></path></g></g><g id="SvgjsG33866" featureKey="nameFeature-0" transform="matrix(0.9275972787498045,0,0,0.9275972787498045,51.51223424074699,179.71861489553987)" fill="#ffffff"><path d="M14.08 13.600000000000001 c2.72 0 4.76 0.76 6.12 2.24 c1.2 1.32 1.8 3.28 1.8 5.68 l0 10.6 c0 4.84 -2.8 7.88 -7.92 7.88 l-10 0 c-0.2 0 -0.32 -0.16 -0.32 -0.36 l0 -25.68 c0 -0.2 0.12 -0.36 0.32 -0.36 l10 0 z M16.76 30.92 l0 -8.2 c0 -2.52 -1.32 -4.12 -4.12 -4.12 l-3.6 0 l0 16.4 l3.6 0 c2.4 0 4.12 -1.56 4.12 -4.08 z M6.2 16.04 l0 21.52 c0 0.16 0.16 0.2 0.24 0.2 l6.52 0 c4.6 0 6.68 -2.76 6.68 -5.32 l0 -10.24 c0 -4.24 -2.24 -6.4 -6.8 -6.4 l-6.4 0 c-0.08 0 -0.24 0.04 -0.24 0.24 z M19.16 22.2 l0 10.24 c0 3.2 -3.2 4.88 -6.2 4.88 l-6.28 0 l0 -21 l6.16 0 c4.2 0 6.32 1.88 6.32 5.88 z M31.753 13.84 c0.04 -0.12 0.12 -0.24 0.28 -0.24 l4.96 0 c0.16 0 0.24 0.12 0.28 0.24 l6.92 25.72 c0.04 0.24 -0.12 0.44 -0.36 0.44 l-4.56 0 c-0.12 0 -0.24 -0.08 -0.28 -0.24 l-1.56 -5.6 l-5.84 0 l-1.52 5.6 c-0.04 0.16 -0.12 0.24 -0.28 0.24 l-4.6 0 c-0.24 0 -0.4 -0.2 -0.36 -0.44 z M32.873000000000005 29.2 l3.32 0 l-1.72 -6.04 z M39.033 31.560000000000002 l1.84 6 c0.08 0.24 0.52 0.2 0.4 -0.12 l-6.4 -21.28 c-0.12 -0.52 -0.8 -0.56 -0.92 0 l-6.2 21.28 c-0.12 0.28 0.32 0.4 0.44 0.16 l1.76 -6.04 l9.08 0 z M30.073 31.04 l4.36 -14.72 l4.44 14.72 l-8.8 0 z M51.666000000000004 18.6 l-5.68 0 c-0.2 0 -0.36 -0.16 -0.36 -0.36 l0 -4.28 c0 -0.2 0.16 -0.36 0.36 -0.36 l16.68 0 c0.2 0 0.36 0.16 0.36 0.36 l0 4.28 c0 0.2 -0.16 0.36 -0.36 0.36 l-5.68 0 l0 21.04 c0 0.2 -0.16 0.36 -0.36 0.36 l-4.6 0 c-0.2 0 -0.36 -0.16 -0.36 -0.36 l0 -21.04 z M60.226 15.8 l-12.08 0 c-0.28 0 -0.28 0.52 0 0.52 l5.92 0 l0 21.2 c0 0.28 0.52 0.28 0.52 0 l0 -21.2 l5.64 0 c0.4 0 0.36 -0.52 0 -0.52 z M71.379 13.84 c0.04 -0.12 0.12 -0.24 0.28 -0.24 l4.96 0 c0.16 0 0.24 0.12 0.28 0.24 l6.92 25.72 c0.04 0.24 -0.12 0.44 -0.36 0.44 l-4.56 0 c-0.12 0 -0.24 -0.08 -0.28 -0.24 l-1.56 -5.6 l-5.84 0 l-1.52 5.6 c-0.04 0.16 -0.12 0.24 -0.28 0.24 l-4.6 0 c-0.24 0 -0.4 -0.2 -0.36 -0.44 z M72.499 29.2 l3.32 0 l-1.72 -6.04 z M78.65899999999999 31.560000000000002 l1.84 6 c0.08 0.24 0.52 0.2 0.4 -0.12 l-6.4 -21.28 c-0.12 -0.52 -0.8 -0.56 -0.92 0 l-6.2 21.28 c-0.12 0.28 0.32 0.4 0.44 0.16 l1.76 -6.04 l9.08 0 z M69.699 31.04 l4.36 -14.72 l4.44 14.72 l-8.8 0 z M95.452 30.4 c-0.2 0 -0.36 -0.16 -0.36 -0.36 l0 -4.28 c0 -0.2 0.16 -0.36 0.36 -0.36 l9.16 0 c0.2 0 0.36 0.16 0.36 0.36 l0 6.28 c0 5.88 -3.16 8.36 -9.12 8.36 c-5.56 0 -9.2 -2.2 -9.2 -8.36 l0 -10.52 c0 -5.8 3.24 -8.28 9.2 -8.28 c5.6 0 9.12 2.16 9.12 8.28 l0 0.84 c0 0.2 -0.16 0.36 -0.36 0.36 l-4.6 0 c-0.2 0 -0.36 -0.16 -0.36 -0.36 l0 -0.52 c0 -2.44 -1.56 -3.24 -3.6 -3.24 l-0.48 0 c-1.32 0 -2.2 0.36 -2.8 1.16 c-0.56 0.76 -0.76 1.76 -0.76 3.08 l0 7.92 c0 3.48 1.88 4.24 3.56 4.24 l0.48 0 c2.44 0 3.6 -1.68 3.6 -4.24 l0 -0.36 l-4.2 0 z M89.09200000000001 31.759999999999998 c0 4.44 2.16 6.08 6.72 6.08 c4.8 0 6.76 -2 6.76 -6.92 l0 -3 c0 -0.12 -0.08 -0.28 -0.16 -0.28 l-5.56 0 c-0.36 0 -0.28 0.52 0 0.52 l5.24 0 l0 2.76 c0 4.28 -1.64 6.48 -6.28 6.48 c-3.84 0 -6.24 -1.36 -6.24 -5.64 l0 -9.64 c0 -4.12 1.88 -5.96 6.24 -5.96 c3.24 0 6.2 1.8 5.96 4.56 c0 0.32 0.44 0.4 0.52 0.04 c0 -3.52 -3.2 -5.04 -6.48 -5.04 c-4 0 -6.72 1.44 -6.72 6.4 l0 9.64 z M109.84500000000001 40 c-0.2 0 -0.32 -0.16 -0.32 -0.36 l0 -25.68 c0 -0.2 0.12 -0.36 0.32 -0.36 l13.6 0 c0.2 0 0.36 0.16 0.36 0.36 l0 4.28 c0 0.2 -0.16 0.36 -0.36 0.36 l-8.64 0 l0 5.44 l6.72 0 c0.2 0 0.32 0.16 0.32 0.36 l0 4.36 c0 0.2 -0.12 0.36 -0.32 0.36 l-6.72 0 l0 5.88 l8.64 0 c0.2 0 0.36 0.16 0.36 0.36 l0 4.28 c0 0.2 -0.16 0.36 -0.36 0.36 l-13.6 0 z M111.84500000000001 16.12 l0 21.28 c0 0.24 0.16 0.32 0.32 0.32 l9.2 0 c0.36 0 0.28 -0.48 0 -0.48 l-9 0 l0 -10.44 l7.36 0 c0.24 0 0.24 -0.56 0 -0.56 l-7.36 0 l0 -9.92 l9 0 c0.28 0 0.36 -0.52 0 -0.52 l-9.2 0 c-0.16 0 -0.32 0.12 -0.32 0.32 z M139.23800000000003 13.96 c0 -0.2 0.16 -0.36 0.36 -0.36 l4.6 0 c0.2 0 0.36 0.16 0.36 0.36 l0 25.68 c0 0.2 -0.16 0.36 -0.36 0.36 l-4.44 0 c-0.16 0 -0.32 -0.08 -0.36 -0.2 l-5.84 -13.16 l0 13 c0 0.2 -0.16 0.36 -0.36 0.36 l-4.56 0 c-0.2 0 -0.32 -0.16 -0.32 -0.36 l0 -25.68 c0 -0.2 0.12 -0.36 0.32 -0.36 l4.72 0 c0.16 0 0.24 0.12 0.28 0.2 l5.6 12.92 l0 -12.76 z M142.11800000000002 37.6 l0 -21.6 c0 -0.28 -0.52 -0.36 -0.52 0 l0 20.56 l-10.44 -20.64 c-0.12 -0.16 -0.44 -0.16 -0.44 0.08 l0 21.56 c0 0.36 0.48 0.36 0.48 0 l0 -20.52 l10.4 20.6 c0.16 0.28 0.52 0.2 0.52 -0.04 z M150.15100000000004 40 c-0.2 0 -0.32 -0.16 -0.32 -0.36 l0 -25.68 c0 -0.2 0.12 -0.36 0.32 -0.36 l4.56 0 c0.2 0 0.36 0.16 0.36 0.36 l0 25.68 c0 0.2 -0.16 0.36 -0.36 0.36 l-4.56 0 z M152.23100000000002 16 l0 21.56 c0 0.36 0.44 0.36 0.44 0 l0 -21.56 c0 -0.28 -0.44 -0.28 -0.44 0 z M172.70400000000004 30.759999999999998 l0 -1.24 c0 -0.2 0.16 -0.36 0.36 -0.36 l4.56 0 c0.2 0 0.36 0.16 0.36 0.36 l0 2.52 c0 5.88 -3.16 8.36 -9.12 8.36 c-5.56 0 -9.2 -2.2 -9.2 -8.36 l0 -10.52 c0 -5.92 3.24 -8.28 9.2 -8.28 c5.64 0 9.12 2.16 9.12 8.28 l0 0.84 c0 0.2 -0.16 0.36 -0.36 0.36 l-4.6 0 c-0.2 0 -0.36 -0.16 -0.36 -0.36 l0 -0.64 c0 -2.2 -1.64 -3.12 -3.6 -3.12 l-0.48 0 c-1.32 0 -2.2 0.36 -2.8 1.16 c-0.56 0.76 -0.76 1.76 -0.76 3.08 l0 7.92 c0 3.48 1.96 4.24 3.56 4.24 l0.48 0 c2.52 0 3.56 -1.68 3.64 -4.24 z M168.78400000000005 15.719999999999999 c-4.28 0 -6.76 1.52 -6.76 6.4 l0 9.64 c0 4.44 2.28 6.08 6.76 6.08 c4.2 0 6.72 -1.52 6.72 -6.12 c0 -0.32 -0.48 -0.32 -0.48 0 c0 4.04 -2.2 5.68 -6.24 5.68 c-3.92 0 -6.32 -1.36 -6.32 -5.64 l0 -9.64 c0 -4.16 1.96 -5.96 6.32 -5.96 c5.68 0 5.88 3.6 5.88 4 c0 0.36 0.56 0.4 0.56 0 c0 -3.32 -3.36 -4.44 -6.44 -4.44 z M191.497 23.8 c3.04 1.44 7 3.72 7 7.84 c0 1.2 -0.2 3.52 -1.52 5.48 c-1.48 2.2 -3.8 3.28 -7 3.28 c-3.4 0 -7.36 -1.64 -8.6 -5.36 c-0.04 -0.12 0 -0.24 0.12 -0.32 l3.68 -3.16 c0.16 -0.12 0.4 -0.12 0.52 0.08 c0.08 0.2 0.24 0.52 0.44 0.92 c0.6 1.24 2.04 2.48 3.64 2.48 c1.24 0 2.92 -0.68 2.92 -2.6 c0 -1.84 -2.52 -2.88 -4.08 -3.48 c-1.8 -0.72 -3.64 -1.64 -5.2 -3 c-1.64 -1.52 -2.44 -3.2 -2.44 -5.2 c0 -5 4.6 -7.52 8.96 -7.52 c3.44 0 6 1.8 7.68 5.36 c0.08 0.16 0 0.36 -0.12 0.44 l-3.56 2.48 c-0.16 0.08 -0.24 0.08 -0.4 -0.12 c-1.36 -1.96 -2.56 -2.88 -4.16 -2.88 c-0.84 0 -2.8 0.32 -2.8 1.8 c0 1.8 3.32 2.72 4.92 3.48 z M184.217 34.84 c1 2 3.76 3.16 6 3.16 c2.92 0 5.28 -2 5.6 -5.04 c0.4 -3.72 -2.52 -5.32 -5.4 -6.76 l-1.28 -0.56 c-2.96 -1.32 -5.12 -2.32 -5.12 -5.08 c0 -3.04 2.8 -4.44 5.56 -4.44 c2.52 0 3.84 1.48 4.52 2.4 c0.24 0.32 0.64 0.04 0.4 -0.28 c-0.68 -0.84 -2.12 -2.6 -4.92 -2.6 c-3.16 0 -6.04 1.56 -6.04 4.92 c0 3 2.4 4.16 5.44 5.56 l1.24 0.6 c3.96 1.88 5.4 3.64 5.08 6.2 c-0.6 4.08 -3.72 4.6 -5.08 4.6 c-3 0 -5 -1.8 -5.6 -2.92 c-0.2 -0.2 -0.48 0 -0.4 0.24 z M213.37 13.600000000000001 l4.56 0 c0.24 0 0.4 0.24 0.32 0.52 l-5.2 11.72 l6.28 13.68 c0.12 0.24 -0.04 0.48 -0.28 0.48 l-4.52 0 c-0.16 0 -0.24 -0.04 -0.28 -0.2 l-4.4 -9.36 l-4.4 9.36 c-0.12 0.2 -0.16 0.2 -0.32 0.2 l-4.56 0 c-0.24 0 -0.4 -0.24 -0.28 -0.48 l6.24 -13.68 l-5.16 -11.72 c-0.08 -0.28 0.08 -0.52 0.32 -0.52 l4.64 0 c0.16 0 0.24 0.12 0.32 0.2 l3.2 7.12 l3.24 -7.12 c0.04 -0.08 0.16 -0.2 0.28 -0.2 z M215.73000000000002 37.64 c0.12 0.2 0.56 0.12 0.4 -0.24 l-6 -11.68 l4.84 -9.52 c0.12 -0.24 -0.12 -0.56 -0.4 -0.28 l-4.72 9.28 l-4.76 -9.28 c-0.16 -0.28 -0.72 -0.08 -0.52 0.28 l4.96 9.52 l-6.04 11.68 c-0.12 0.36 0.36 0.44 0.44 0.24 l5.92 -11.4 z"></path></g>
			</g>
		</svg>
	